<mxfile host="app.diagrams.net" agent="Mozilla/5.0 (Windows NT 10.0; Win64; x64) AppleWebKit/537.36 (KHTML, like Gecko) Chrome/135.0.0.0 Safari/537.36 Edg/135.0.0.0" version="27.1.5">
  <diagram name="PÃ¡gina-1" id="8EaoHA5tYInklqdYi12I">
    <mxGraphModel grid="1" page="1" gridSize="10" guides="1" tooltips="1" connect="1" arrows="1" fold="1" pageScale="1" pageWidth="2000" pageHeight="2000" math="0" shadow="0">
      <root>
        <mxCell id="0" />
        <mxCell id="1" parent="0" />
        <mxCell id="2xDgBwUwl1BfcuHhYrpc-6" style="edgeStyle=orthogonalEdgeStyle;rounded=0;orthogonalLoop=1;jettySize=auto;html=1;endArrow=none;startFill=0;" edge="1" parent="1" source="2xDgBwUwl1BfcuHhYrpc-1" target="2xDgBwUwl1BfcuHhYrpc-2">
          <mxGeometry relative="1" as="geometry" />
        </mxCell>
        <mxCell id="2xDgBwUwl1BfcuHhYrpc-1" value="Aluno" style="shape=umlActor;verticalLabelPosition=bottom;verticalAlign=top;html=1;outlineConnect=0;" vertex="1" parent="1">
          <mxGeometry x="-40" y="30" width="30" height="60" as="geometry" />
        </mxCell>
        <mxCell id="2xDgBwUwl1BfcuHhYrpc-9" style="edgeStyle=orthogonalEdgeStyle;rounded=0;orthogonalLoop=1;jettySize=auto;html=1;endArrow=none;startFill=0;" edge="1" parent="1" source="2xDgBwUwl1BfcuHhYrpc-2" target="2xDgBwUwl1BfcuHhYrpc-3">
          <mxGeometry relative="1" as="geometry" />
        </mxCell>
        <mxCell id="2xDgBwUwl1BfcuHhYrpc-2" value=":VantagemView" style="rounded=0;whiteSpace=wrap;html=1;" vertex="1" parent="1">
          <mxGeometry x="290" y="30" width="120" height="60" as="geometry" />
        </mxCell>
        <mxCell id="2xDgBwUwl1BfcuHhYrpc-12" style="edgeStyle=orthogonalEdgeStyle;rounded=0;orthogonalLoop=1;jettySize=auto;html=1;endArrow=none;startFill=0;" edge="1" parent="1" source="2xDgBwUwl1BfcuHhYrpc-3" target="2xDgBwUwl1BfcuHhYrpc-4">
          <mxGeometry relative="1" as="geometry" />
        </mxCell>
        <mxCell id="2xDgBwUwl1BfcuHhYrpc-3" value=":TransacaoController" style="rounded=0;whiteSpace=wrap;html=1;" vertex="1" parent="1">
          <mxGeometry x="290" y="250" width="120" height="60" as="geometry" />
        </mxCell>
        <mxCell id="2xDgBwUwl1BfcuHhYrpc-15" style="edgeStyle=orthogonalEdgeStyle;rounded=0;orthogonalLoop=1;jettySize=auto;html=1;endArrow=none;startFill=0;" edge="1" parent="1" source="2xDgBwUwl1BfcuHhYrpc-4" target="2xDgBwUwl1BfcuHhYrpc-5">
          <mxGeometry relative="1" as="geometry" />
        </mxCell>
        <mxCell id="2xDgBwUwl1BfcuHhYrpc-4" value=":TransacaoRepository" style="rounded=0;whiteSpace=wrap;html=1;" vertex="1" parent="1">
          <mxGeometry x="290" y="480" width="120" height="60" as="geometry" />
        </mxCell>
        <mxCell id="2xDgBwUwl1BfcuHhYrpc-5" value=":TransacaoModel" style="rounded=0;whiteSpace=wrap;html=1;" vertex="1" parent="1">
          <mxGeometry x="730" y="480" width="120" height="60" as="geometry" />
        </mxCell>
        <mxCell id="2xDgBwUwl1BfcuHhYrpc-7" value="1. resgatarVantagem()" style="text;html=1;align=center;verticalAlign=middle;whiteSpace=wrap;rounded=0;" vertex="1" parent="1">
          <mxGeometry x="90" y="30" width="130" height="30" as="geometry" />
        </mxCell>
        <mxCell id="2xDgBwUwl1BfcuHhYrpc-8" value="" style="endArrow=classic;html=1;rounded=0;exitX=1;exitY=0.5;exitDx=0;exitDy=0;" edge="1" parent="1" source="2xDgBwUwl1BfcuHhYrpc-7">
          <mxGeometry width="50" height="50" relative="1" as="geometry">
            <mxPoint x="170" y="130" as="sourcePoint" />
            <mxPoint x="260" y="45" as="targetPoint" />
          </mxGeometry>
        </mxCell>
        <mxCell id="2xDgBwUwl1BfcuHhYrpc-10" value="1.1 [Se saldo for suficiente]&lt;div&gt;POST api/transacoes/resgatar-vantagem(vantagemId, valor)&lt;/div&gt;" style="text;html=1;align=center;verticalAlign=middle;whiteSpace=wrap;rounded=0;" vertex="1" parent="1">
          <mxGeometry x="370" y="160" width="350" height="30" as="geometry" />
        </mxCell>
        <mxCell id="2xDgBwUwl1BfcuHhYrpc-11" value="" style="endArrow=classic;html=1;rounded=0;" edge="1" parent="1">
          <mxGeometry width="50" height="50" relative="1" as="geometry">
            <mxPoint x="360" y="160" as="sourcePoint" />
            <mxPoint x="360" y="190" as="targetPoint" />
          </mxGeometry>
        </mxCell>
        <mxCell id="2xDgBwUwl1BfcuHhYrpc-13" value="1.2 resgatarVantagem(resgateDTO:Resgate)" style="text;html=1;align=center;verticalAlign=middle;whiteSpace=wrap;rounded=0;" vertex="1" parent="1">
          <mxGeometry x="370" y="380" width="210" height="30" as="geometry" />
        </mxCell>
        <mxCell id="2xDgBwUwl1BfcuHhYrpc-14" value="" style="endArrow=classic;html=1;rounded=0;" edge="1" parent="1">
          <mxGeometry width="50" height="50" relative="1" as="geometry">
            <mxPoint x="360" y="380" as="sourcePoint" />
            <mxPoint x="360" y="410" as="targetPoint" />
          </mxGeometry>
        </mxCell>
        <mxCell id="2xDgBwUwl1BfcuHhYrpc-16" value="1.3 transacaoRepository.save(transacao:Transacao)" style="text;html=1;align=center;verticalAlign=middle;whiteSpace=wrap;rounded=0;" vertex="1" parent="1">
          <mxGeometry x="420" y="480" width="250" height="30" as="geometry" />
        </mxCell>
        <mxCell id="2xDgBwUwl1BfcuHhYrpc-17" value="" style="endArrow=classic;html=1;rounded=0;exitX=1;exitY=0.5;exitDx=0;exitDy=0;" edge="1" parent="1" source="2xDgBwUwl1BfcuHhYrpc-16">
          <mxGeometry width="50" height="50" relative="1" as="geometry">
            <mxPoint x="590" y="590" as="sourcePoint" />
            <mxPoint x="710" y="495" as="targetPoint" />
            <Array as="points" />
          </mxGeometry>
        </mxCell>
        <mxCell id="2xDgBwUwl1BfcuHhYrpc-18" value="1.4 resposta(transicaoRepository.save):String" style="text;html=1;align=center;verticalAlign=middle;whiteSpace=wrap;rounded=0;" vertex="1" parent="1">
          <mxGeometry x="480" y="510" width="230" height="30" as="geometry" />
        </mxCell>
        <mxCell id="2xDgBwUwl1BfcuHhYrpc-19" value="" style="endArrow=open;html=1;rounded=0;endFill=0;dashed=1;dashPattern=8 8;" edge="1" parent="1">
          <mxGeometry width="50" height="50" relative="1" as="geometry">
            <mxPoint x="470" y="524.71" as="sourcePoint" />
            <mxPoint x="430" y="524.71" as="targetPoint" />
          </mxGeometry>
        </mxCell>
        <mxCell id="2xDgBwUwl1BfcuHhYrpc-21" value="1.5 resposta(transicaoRepository.save):String" style="text;html=1;align=center;verticalAlign=middle;whiteSpace=wrap;rounded=0;" vertex="1" parent="1">
          <mxGeometry x="90" y="380" width="230" height="30" as="geometry" />
        </mxCell>
        <mxCell id="2xDgBwUwl1BfcuHhYrpc-22" value="" style="endArrow=open;html=1;rounded=0;endFill=0;dashed=1;dashPattern=8 8;" edge="1" parent="1">
          <mxGeometry width="50" height="50" relative="1" as="geometry">
            <mxPoint x="335" y="409.42028985507244" as="sourcePoint" />
            <mxPoint x="335" y="380" as="targetPoint" />
          </mxGeometry>
        </mxCell>
        <mxCell id="2xDgBwUwl1BfcuHhYrpc-23" value="1.6 resposta(transicaoRepository.save):String" style="text;html=1;align=center;verticalAlign=middle;whiteSpace=wrap;rounded=0;" vertex="1" parent="1">
          <mxGeometry x="100" y="160" width="230" height="30" as="geometry" />
        </mxCell>
        <mxCell id="2xDgBwUwl1BfcuHhYrpc-25" value="" style="endArrow=open;html=1;rounded=0;endFill=0;dashed=1;dashPattern=8 8;" edge="1" parent="1">
          <mxGeometry width="50" height="50" relative="1" as="geometry">
            <mxPoint x="340" y="190" as="sourcePoint" />
            <mxPoint x="340" y="160" as="targetPoint" />
          </mxGeometry>
        </mxCell>
        <mxCell id="2xDgBwUwl1BfcuHhYrpc-26" value="1.7 alert(&quot;Resgate realizado!&quot;):String" style="text;html=1;align=center;verticalAlign=middle;whiteSpace=wrap;rounded=0;" vertex="1" parent="1">
          <mxGeometry x="70" y="60" width="190" height="30" as="geometry" />
        </mxCell>
        <mxCell id="2xDgBwUwl1BfcuHhYrpc-27" value="" style="endArrow=open;html=1;rounded=0;exitX=0;exitY=0.5;exitDx=0;exitDy=0;endFill=0;dashed=1;dashPattern=8 8;" edge="1" parent="1" source="2xDgBwUwl1BfcuHhYrpc-26">
          <mxGeometry width="50" height="50" relative="1" as="geometry">
            <mxPoint x="150" y="160" as="sourcePoint" />
            <mxPoint x="30" y="75" as="targetPoint" />
          </mxGeometry>
        </mxCell>
      </root>
    </mxGraphModel>
  </diagram>
</mxfile>
